<?xml version="1.0" encoding="UTF-8"?>
<svg width="47px" height="47px" viewBox="0 0 47 47" version="1.1" xmlns="http://www.w3.org/2000/svg" xmlns:xlink="http://www.w3.org/1999/xlink">
    <!-- Generator: Sketch 56.3 (81716) - https://sketch.com -->
    <title>credit-card</title>
    <desc>Created with Sketch.</desc>
    <g id="Page-1" stroke="none" stroke-width="1" fill="none" fill-rule="evenodd">
        <g id="credit-card" fill="#FFFFFF" fill-rule="nonzero">
            <path d="M46.6720734,16.8774407 L41.4211619,3.21124532 C40.4261494,0.627781352 37.5272902,-0.659054741 34.9464398,0.336965403 C34.9089752,0.351457242 34.8716084,0.366340751 34.8344373,0.38171385 L8.59396573,11.2701763 C6.09538092,12.2961593 4.8673641,15.1272575 5.82452075,17.655202 L6.54603199,19.5830082 L4.89093843,19.5830082 C2.1910426,19.5860437 0.00303238182,21.7762696 0,24.4788996 L0,42.1041086 C0.00303238182,44.8067386 2.1910426,46.9969645 4.89093843,47 L38.1493197,47 C40.8492155,46.9969645 43.0372258,44.8067386 43.0402581,42.1041086 L43.0402581,24.4788996 C43.038693,24.2131506 43.0151187,23.9479891 42.9698286,23.6861569 L43.8783693,23.3179858 C46.3992568,22.2836798 47.6382294,19.4274168 46.6720734,16.8774407 Z M4.89093843,21.1497914 L38.1493197,21.1497914 C39.9057535,21.1547852 41.3546451,22.5278869 41.4555941,24.2831619 L1.58466405,24.2831619 C1.68561302,22.527789 3.13450462,21.1546873 4.89093843,21.1497914 Z M12.75635,16.4309354 L17.9869152,13.812221 L19.0621391,16.5045696 L13.8315739,19.1225007 L12.75635,16.4309354 Z M41.4751578,42.1042065 C41.4730058,43.9420262 39.9852802,45.4312585 38.1493197,45.4334127 L4.89093843,45.4334127 C3.05497796,45.4312585 1.56725231,43.9420262 1.5651003,42.1042065 L1.5651003,32.1165881 L41.4751578,32.1165881 L41.4751578,42.1042065 Z M41.4751578,30.5499028 L1.5651003,30.5499028 L1.5651003,25.8498471 L41.4751578,25.8498471 L41.4751578,30.5499028 Z M43.2914567,21.8704666 L42.4736918,22.2018205 C41.6290268,20.5936181 39.9644448,19.585652 38.1493197,19.5831061 L16.4116417,19.5831061 L20.4065602,17.5832324 C20.7708373,17.4012032 20.9348794,16.9699731 20.7837494,16.5915207 L19.1239605,12.4398048 C18.9634399,12.0381458 18.5080936,11.8427018 18.106841,12.0032871 C18.0865925,12.0114143 18.0667353,12.0203248 18.0472693,12.0301166 L11.4120266,15.353056 C11.048043,15.535379 10.8843922,15.9665112 11.03562,16.3447677 L12.329958,19.5831061 L8.21677655,19.5831061 L7.29023718,17.1093101 C6.63338415,15.3724437 7.47707103,13.4277956 9.19339914,12.7225914 L35.4330882,1.83412899 C37.1872721,1.10601202 39.1990129,1.93919482 39.9264911,3.69515523 C39.9378381,3.7224743 39.9487938,3.74998921 39.9593582,3.77760204 L45.2102697,17.4437974 C45.874557,19.196037 45.0236315,21.1590936 43.2914567,21.8704666 Z" id="Shape"></path>
            <path d="M28.3193062,43.3903824 C29.7662691,44.2022099 31.5530372,44.2022099 33,43.3903824 C35.2247976,44.638634 38.0762112,43.9087297 39.3687524,41.7601658 C40.6612936,39.611602 39.9054913,36.8578933 37.6806938,35.6096416 C36.9666271,35.2090238 36.1552098,34.9988729 35.3294277,35.0007475 C34.510828,35.0011225 33.7069813,35.2111797 33,35.6096416 C30.7752024,34.36139 27.9237888,35.0912006 26.6312476,37.2397644 C25.3387064,39.388422 26.0945087,42.1420369 28.3193062,43.3903824 Z M34.2982677,36.6835487 C34.6285611,36.5660066 34.9773929,36.5041423 35.3294277,36.5005805 C37.04476,36.5005805 38.4353313,37.8435032 38.4353313,39.5000589 C38.4353313,41.1566146 37.04476,42.4995373 35.3294277,42.4995373 C34.9773929,42.4959754 34.6285611,42.4341112 34.2982677,42.3165691 C35.6730183,40.6735111 35.6730183,38.3265129 34.2982677,36.6835487 Z M33,37.5369003 C34.0353336,38.6547684 34.0353336,40.3453494 33,41.4632175 C31.9646664,40.3453494 31.9646664,38.6546746 33,37.5369003 Z M30.6705723,36.5005805 C31.0226071,36.5040486 31.3714389,36.5660066 31.7017323,36.6835487 C30.3269817,38.3265129 30.3269817,40.6736048 31.7017323,42.3165691 C31.3714389,42.4341112 31.0226071,42.4959754 30.6705723,42.4995373 C28.95524,42.4995373 27.5646687,41.1566146 27.5646687,39.5000589 C27.5646687,37.8434095 28.95524,36.5005805 30.6705723,36.5005805 Z" id="Shape"></path>
            <polygon id="Rectangle" transform="translate(37.020409, 15.213098) rotate(-113.965979) translate(-37.020409, -15.213098) " points="36.2386932 11.1325402 37.8021254 11.1325402 37.8021254 19.293656 36.2386932 19.293656"></polygon>
            <polygon id="Rectangle" transform="translate(33.709016, 12.727075) rotate(-24.776341) translate(-33.709016, -12.727075) " points="27.7771178 11.9457186 39.6409149 11.9457186 39.6409149 13.5084315 27.7771178 13.5084315"></polygon>
        </g>
    </g>
</svg>