<?xml version="1.0" encoding="UTF-8"?>
<svg width="53px" height="47px" viewBox="0 0 53 47" version="1.1" xmlns="http://www.w3.org/2000/svg" xmlns:xlink="http://www.w3.org/1999/xlink">
    <!-- Generator: Sketch 56.3 (81716) - https://sketch.com -->
    <title>gallery</title>
    <desc>Created with Sketch.</desc>
    <g id="Page-1" stroke="none" stroke-width="1" fill="none" fill-rule="evenodd">
        <g id="gallery" fill="#FFFFFF" fill-rule="nonzero">
            <path d="M27.5,17 C24.4625051,17 22,19.4623798 22,22.5 C22,25.5374949 24.4623798,28 27.5,28 C30.5374949,28 33,25.5376202 33,22.5 C33,19.4623798 30.5376202,17 27.5,17 Z M27.5,25.380839 C25.9088775,25.380839 24.6190357,24.0909971 24.6190357,22.4998747 C24.6190357,20.9087522 25.9088775,19.6189104 27.5,19.6189104 L27.5,19.6189104 C29.0911225,19.6189104 30.3809643,20.9087522 30.3809643,22.4998747 C30.3809643,24.0909971 29.0911225,25.380839 27.5,25.380839 Z" id="Shape"></path>
            <path d="M48.4007611,4.08593484 L13.2600324,0.0486445655 C11.8961991,-0.147542489 10.5143801,0.255301577 9.46283265,1.15571789 C8.41140843,1.98060095 7.73743749,3.20334237 7.59638527,4.54187654 L6.95284219,9.88167934 L4.95753837,9.88167934 C2.12565319,9.88167934 0.00173930518,12.4212672 0.00173930518,15.2865454 L0.00173930518,41.9202469 C-0.0695875401,44.6525317 2.06171773,46.9261328 4.76228267,46.9983007 C4.82732684,47 4.8924942,47 4.95753837,47 L40.2913053,47 C43.1231905,47 45.6976092,44.7855251 45.6976092,41.9202469 L45.6976092,40.8783615 C46.5755823,40.706729 47.408468,40.3518722 48.1432946,39.8364761 C49.1860956,38.9481501 49.8537838,37.6901349 50.009742,36.3200662 L52.9703604,9.88167934 C53.2721752,7.00979502 51.2352333,4.42633309 48.4007611,4.08593484 Z M43.1233137,41.9202469 C43.1233137,43.352886 41.7072479,44.3947714 40.2913053,44.3947714 L4.95753837,44.3947714 C3.67845956,44.4327873 2.61114386,43.4144593 2.573571,42.1202978 C2.57159996,42.0536142 2.57254263,41.9869305 2.57615798,41.9202469 L2.57615798,37.1014491 L12.5520611,29.6778755 C13.7504507,28.7469218 15.4383962,28.8296843 16.5424224,29.8731901 L23.5577071,36.124627 C24.6230518,37.0296551 25.964095,37.5355784 27.3550301,37.5572661 C28.4425489,37.5707275 29.5122052,37.2776933 30.4443818,36.7106953 L43.1233137,29.2871217 L43.1233137,41.9202469 L43.1233137,41.9202469 Z M43.1231905,26.2265289 L29.0926211,34.4966733 C27.8878256,35.2188511 26.3628602,35.0881012 25.2952981,34.1711075 L18.2157083,27.8544826 C16.1866505,26.0904195 13.2209813,25.9822299 11.0716903,27.5939801 L2.57615798,33.845417 L2.57615798,15.2865454 C2.57615798,13.8539063 3.54159578,12.4864551 4.95753837,12.4864551 L40.2913053,12.4864551 C41.804075,12.5498981 43.0257475,13.7579317 43.1231905,15.2865454 L43.1231905,26.2265289 L43.1231905,26.2265289 Z M50.3984056,9.53006328 C50.3975432,9.5386636 50.3968041,9.54738857 50.3958186,9.55598889 L47.3708951,35.9943757 C47.3760691,36.6799086 47.0671093,37.3291706 46.5341906,37.7525807 C46.2767241,38.0130832 45.697486,38.1433344 45.697486,38.2735857 L45.697486,15.2865454 C45.5958545,12.3199329 43.2242061,9.94886157 40.2911822,9.88167934 L9.52713768,9.88167934 L10.1063757,4.80237905 C10.2320292,4.14464138 10.5719097,3.54860168 11.0718135,3.1092374 C11.6362688,2.71437045 12.3187398,2.5302737 13.0026891,2.58823239 L48.0791128,6.69071061 C49.4943162,6.82669541 50.5328055,8.09792271 50.3984056,9.53006328 Z" id="Shape"></path>
        </g>
    </g>
</svg>