<?xml version="1.0" encoding="UTF-8"?>
<svg width="49px" height="47px" viewBox="0 0 49 47" version="1.1" xmlns="http://www.w3.org/2000/svg" xmlns:xlink="http://www.w3.org/1999/xlink">
    <!-- Generator: Sketch 56.3 (81716) - https://sketch.com -->
    <title>clock</title>
    <desc>Created with Sketch.</desc>
    <g id="Page-1" stroke="none" stroke-width="1" fill="none" fill-rule="evenodd">
        <g id="clock" fill="#FFFFFF" fill-rule="nonzero">
            <path d="M48.9055096,25.7615887 C48.4655557,21.3397807 46.4885866,17.1711091 43.3385667,14.0233992 C40.6465887,11.3335728 37.3516721,9.60503388 33.8846786,8.83644373 L33.8846786,6.40663927 C35.3007233,6.05461981 36.3532821,4.7738275 36.3532821,3.25147008 C36.3532821,1.45857123 34.8935961,0 33.099327,0 L26.2085985,0 C24.4143294,0 22.9546434,1.45857123 22.9546434,3.25147008 C22.9546434,4.77373187 24.0072022,6.05452418 25.4231512,6.40663927 L25.4231512,8.84323356 C21.966781,9.61507518 18.6827746,11.3412233 15.9984531,14.0234948 C15.4110185,14.6104808 14.8693307,15.2262519 14.3734853,15.8662177 C14.3494635,15.8644007 14.3254416,15.8625837 14.3009413,15.8625837 L7.48093848,15.8625837 C6.95245789,15.8625837 6.52389287,16.2907258 6.52389287,16.8188984 C6.52389287,17.347071 6.95245789,17.7752131 7.48093848,17.7752131 L13.0712333,17.7752131 C12.3695275,18.9490895 11.8037221,20.1818748 11.3730516,21.4509044 L0.957045618,21.4509044 C0.428565028,21.4509044 0,21.8790465 0,22.4072192 C0,22.9353918 0.428565028,23.3635339 0.957045618,23.3635339 L10.8322251,23.3635339 C10.5564046,24.5733677 10.3981092,25.8046229 10.3572434,27.0393208 L6.12509196,27.0393208 C5.59661137,27.0393208 5.16804634,27.4674629 5.16804634,27.9956355 C5.16804634,28.5238082 5.59661137,28.9519503 6.12509196,28.9519503 L10.3877731,28.9519503 C10.4685478,30.1898041 10.667709,31.4211549 10.9853524,32.6277372 L4.78522809,32.6277372 C4.2567475,32.6277372 3.82818247,33.0558793 3.82818247,33.5840519 C3.82818247,34.1122246 4.2567475,34.5403667 4.78522809,34.5403667 L11.5961389,34.5403667 C12.5350007,37.022099 14.0022473,39.3481433 15.9984531,41.3428246 C19.1515356,44.4934991 23.3276998,46.4694366 27.7574812,46.9067593 C28.3897055,46.969111 29.0224084,47 29.6542499,47 C33.3888333,47 37.0759472,45.9200338 40.2045294,43.884231 C40.6474501,43.5959977 40.7727274,43.0035607 40.4842738,42.5609783 C40.1958203,42.1183958 39.6029305,41.9932142 39.1600098,42.2814475 C32.3116785,46.7375872 23.1400232,45.7741001 17.351907,39.9904043 C10.5605199,33.2042037 10.5605199,22.162307 17.351907,15.3760107 C24.1431984,8.58990579 35.1935342,8.58990579 41.985017,15.3760107 C47.7654769,21.1521517 48.7349641,30.3089609 44.2901571,37.1487151 C44.0022778,37.5916801 44.1283207,38.1840214 44.5715285,38.4715852 C45.0150235,38.7592447 45.6076261,38.6332981 45.8954097,38.1903331 C48.2702227,34.5357763 49.3392427,30.1219057 48.9055096,25.7615887 Z M24.8687347,3.25156571 C24.8687347,2.51329074 25.4697593,1.91272509 26.2085985,1.91272509 L33.099327,1.91272509 C33.8381662,1.91272509 34.4391909,2.51329074 34.4391909,3.25156571 C34.4391909,3.98984068 33.8381662,4.59040633 33.099327,4.59040633 L32.927633,4.59040633 L26.3801968,4.59040633 L26.2085985,4.59040633 C25.4697593,4.59040633 24.8687347,3.98974505 24.8687347,3.25156571 Z M27.3372424,8.51445256 L27.3372424,6.50303579 L31.9705874,6.50303579 L31.9705874,8.51100983 C30.4320409,8.32816245 28.8755019,8.32931003 27.3372424,8.51445256 Z" id="XMLID_389_"></path>
            <path d="M43,40 C42.736,40 42.479,40.107 42.2931,40.293 C42.1061,40.479 42,40.737 42,41 C42,41.263 42.1061,41.521 42.2931,41.707 C42.479,41.894 42.7361,42 43,42 C43.263,42 43.52,41.894 43.707,41.707 C43.893,41.521 44,41.263 44,41 C44,40.737 43.8931,40.479 43.707,40.293 C43.52,40.107 43.2629,40 43,40 Z" id="XMLID_391_"></path>
            <path d="M30,13 C21.7290126,13 15,19.7289159 15,28 C15,36.2710841 21.7290126,43 30,43 C38.2709874,43 45,36.2710841 45,28 C45,19.7289159 38.2709874,13 30,13 Z M30,41.0661256 C22.7952543,41.0661256 16.9338744,35.204649 16.9338744,28 C16.9338744,20.795351 22.7952543,14.9338744 30,14.9338744 C37.2047457,14.9338744 43.0661256,20.795351 43.0661256,28 C43.0661256,35.204649 37.2047457,41.0661256 30,41.0661256 Z" id="XMLID_394_"></path>
            <path d="M36.3350795,20.2629045 L31.5043889,24.7089648 C31.1004171,24.5251224 30.6460221,24.4212622 30.1656839,24.4212622 C29.6852481,24.4212622 29.2309506,24.5251224 28.8269788,24.7089648 L26.665018,22.7191039 C26.2840635,22.3685646 25.6666948,22.3685646 25.2856427,22.7191039 C24.9047858,23.0696433 24.9047858,23.6380468 25.2856427,23.9885862 L27.4476036,25.978447 C27.2477634,26.3502611 27.135018,26.7684847 27.135018,27.2105862 C27.135018,28.7486507 28.494497,30 30.1656839,30 C31.8368707,30 33.1963497,28.7486507 33.1963497,27.2105862 C33.1963497,26.7684847 33.0835068,26.3502611 32.8837642,25.978447 L37.5726453,21.6628179 L37.5726453,21.6628179 L37.7143573,21.5323867 C38.0952142,21.1818474 38.0952142,20.6134439 37.7143573,20.2629045 C37.3335003,19.9123652 36.7161316,19.9123652 36.3350795,20.2629045 Z M30.1656839,28.2047536 C29.570162,28.2047536 29.08563,27.7587921 29.08563,27.210676 C29.08563,26.6625598 29.570162,26.2165983 30.1656839,26.2165983 C30.7612057,26.2165983 31.2457377,26.6625598 31.2457377,27.210676 C31.2457377,27.7587921 30.7612057,28.2047536 30.1656839,28.2047536 Z" id="XMLID_397_"></path>
            <path d="M39.9748847,27 L39.0251153,27 C38.4590466,27 38,27.4477 38,28 C38,28.5523 38.4590466,29 39.0251153,29 L39.9748847,29 C40.5409534,29 41,28.5523 41,28 C41,27.4477 40.5409534,27 39.9748847,27 Z" id="XMLID_398_"></path>
            <path d="M20.9748496,27 L20.0251504,27 C19.4590623,27 19,27.4477 19,28 C19,28.5523 19.4590623,29 20.0251504,29 L20.9748496,29 C21.5409377,29 22,28.5523 22,28 C22,27.4477 21.5409377,27 20.9748496,27 Z" id="XMLID_399_"></path>
            <path d="M29,19 C29.5522,19 30,18.5410402 30,17.9748496 L30,17.0251504 C30,16.4589598 29.5522,16 29,16 C28.4478,16 28,16.4589598 28,17.0251504 L28,17.9748496 C28,18.5410402 28.4478,19 29,19 Z" id="XMLID_400_"></path>
            <path d="M29,36 C28.4478,36 28,36.4589598 28,37.0251504 L28,37.9748496 C28,38.5410402 28.4478,39 29,39 C29.5522,39 30,38.5410402 30,37.9748496 L30,37.0251504 C30,36.4589598 29.5522,36 29,36 Z" id="XMLID_424_"></path>
            <path d="M1,33 C0.737,33 0.479,33.107 0.293,33.293 C0.107,33.479 0,33.737 0,34 C0,34.264 0.1069,34.521 0.293,34.707 C0.4791,34.893 0.737,35 1,35 C1.263,35 1.521,34.893 1.7069,34.707 C1.8929,34.521 2,34.263 2,34 C2,33.737 1.893,33.479 1.7069,33.293 C1.521,33.107 1.263,33 1,33 Z" id="XMLID_425_"></path>
        </g>
    </g>
</svg>