<?xml version="1.0" encoding="UTF-8"?>
<svg width="15px" height="15px" viewBox="0 0 15 15" version="1.1" xmlns="http://www.w3.org/2000/svg" xmlns:xlink="http://www.w3.org/1999/xlink">
    <!-- Generator: Sketch 56.3 (81716) - https://sketch.com -->
    <title>iconmonstr-instagram-11</title>
    <desc>Created with Sketch.</desc>
    <g id="Page-1" stroke="none" stroke-width="1" fill="none" fill-rule="evenodd">
        <g id="iconmonstr-instagram-11" fill="#FFFFFF" fill-rule="nonzero">
            <path d="M7.5,1.351875 C9.5025,1.351875 9.74,1.359375 10.53125,1.395625 C12.56375,1.488125 13.513125,2.4525 13.605625,4.47 C13.641875,5.260625 13.64875,5.498125 13.64875,7.500625 C13.64875,9.50375 13.64125,9.740625 13.605625,10.53125 C13.5125,12.546875 12.565625,13.513125 10.53125,13.605625 C9.74,13.641875 9.50375,13.649375 7.5,13.649375 C5.4975,13.649375 5.26,13.641875 4.469375,13.605625 C2.431875,13.5125 1.4875,12.54375 1.395,10.530625 C1.35875,9.74 1.35125,9.503125 1.35125,7.5 C1.35125,5.4975 1.359375,5.260625 1.395,4.469375 C1.488125,2.4525 2.435,1.4875 4.469375,1.395 C5.260625,1.359375 5.4975,1.351875 7.5,1.351875 L7.5,1.351875 Z M7.5,0 C5.463125,0 5.208125,0.00875 4.408125,0.045 C1.684375,0.17 0.170625,1.68125 0.045625,4.4075 C0.00875,5.208125 0,5.463125 0,7.5 C0,9.536875 0.00875,9.7925 0.045,10.5925 C0.17,13.31625 1.68125,14.83 4.4075,14.955 C5.208125,14.99125 5.463125,15 7.5,15 C9.536875,15 9.7925,14.99125 10.5925,14.955 C13.31375,14.83 14.83125,13.31875 14.954375,10.5925 C14.99125,9.7925 15,9.536875 15,7.5 C15,5.463125 14.99125,5.208125 14.955,4.408125 C14.8325,1.686875 13.319375,0.170625 10.593125,0.045625 C9.7925,0.00875 9.536875,0 7.5,0 Z M7.5,3.64875 C5.373125,3.64875 3.64875,5.373125 3.64875,7.5 C3.64875,9.626875 5.373125,11.351875 7.5,11.351875 C9.626875,11.351875 11.35125,9.6275 11.35125,7.5 C11.35125,5.373125 9.626875,3.64875 7.5,3.64875 Z M7.5,10 C6.119375,10 5,8.88125 5,7.5 C5,6.119375 6.119375,5 7.5,5 C8.880625,5 10,6.119375 10,7.5 C10,8.88125 8.880625,10 7.5,10 Z M11.50375,2.596875 C11.00625,2.596875 10.603125,3 10.603125,3.496875 C10.603125,3.99375 11.00625,4.396875 11.50375,4.396875 C12.000625,4.396875 12.403125,3.99375 12.403125,3.496875 C12.403125,3 12.000625,2.596875 11.50375,2.596875 Z" id="Shape"></path>
        </g>
    </g>
</svg>