<?xml version="1.0" encoding="UTF-8"?>
<svg width="17px" height="17px" viewBox="0 0 17 17" version="1.1" xmlns="http://www.w3.org/2000/svg" xmlns:xlink="http://www.w3.org/1999/xlink">
    <!-- Generator: Sketch 56.3 (81716) - https://sketch.com -->
    <title>iconmonstr-whatsapp-1</title>
    <desc>Created with Sketch.</desc>
    <g id="Page-1" stroke="none" stroke-width="1" fill="none" fill-rule="evenodd">
        <g id="iconmonstr-whatsapp-1" transform="translate(1.000000, 1.000000)" fill="#FFFFFF" fill-rule="nonzero" stroke="#FFFFFF" stroke-width="0.5">
            <path d="M0,15 L1.05940708,11.148125 C0.405676924,10.020625 0.0621703027,8.7425 0.0627982855,7.431875 C0.0646822341,3.334375 3.41497077,0 7.53139838,0 C9.52901185,0.000625 11.4041687,0.775 12.8146181,2.18 C14.2244397,3.585 15.0006265,5.4525 15,7.43875 C14.9981145,11.536875 11.647826,14.87125 7.53139838,14.87125 C6.2817125,14.870625 5.05023812,14.55875 3.9594319,13.96625 L0,15 Z M4.1428029,12.620625 C5.19530216,13.2425 6.20007473,13.615 7.52888645,13.615625 C10.950137,13.615625 13.737125,10.844375 13.7390093,7.4375 C13.7402649,4.02375 10.9664646,1.25625 7.53391031,1.255 C4.11014779,1.255 1.32504382,4.02625 1.32378714,7.4325 C1.32315988,8.823125 1.7326047,9.864375 2.42024592,10.95375 L1.79289105,13.23375 L4.1428029,12.620625 Z M11.2936437,9.205625 C11.2471729,9.128125 11.1228323,9.081875 10.9356934,8.98875 C10.7491825,8.895625 9.83169958,8.44625 9.66026026,8.384375 C9.48944893,8.3225 9.36510832,8.29125 9.24013973,8.4775 C9.11579913,8.663125 8.7578489,9.081875 8.64920786,9.205625 C8.54056683,9.329375 8.43129781,9.345 8.24478691,9.251875 C8.058276,9.15875 7.45666842,8.963125 6.74390788,8.33 C6.18939902,7.8375 5.81449326,7.229375 5.70585222,7.043125 C5.59721119,6.8575 5.69454853,6.756875 5.78748999,6.664375 C5.8716397,6.58125 5.9740009,6.4475 6.06757035,6.33875 C6.16239576,6.23125 6.19316692,6.15375 6.2559652,6.029375 C6.31813551,5.905625 6.28736435,5.796875 6.24026563,5.70375 C6.19316692,5.61125 5.8201451,4.696875 5.66503334,4.325 C5.51306149,3.963125 5.35920569,4.011875 5.24491281,4.00625 L4.88696258,4 C4.76262197,4 4.56041149,4.04625 4.38960016,4.2325 C4.21878882,4.41875 3.73649799,4.8675 3.73649799,5.781875 C3.73649799,6.69625 4.40529973,7.579375 4.49824119,7.703125 C4.59181064,7.826875 5.81386527,9.703125 7.68588217,10.5075 C8.13112201,10.69875 8.47902451,10.813125 8.74968512,10.89875 C9.19680891,11.04 9.6037418,11.02 9.92526903,10.9725 C10.2838472,10.919375 11.0292629,10.523125 11.1850026,10.089375 C11.3407424,9.655 11.3407424,9.283125 11.2936437,9.205625 L11.2936437,9.205625 Z" id="Shape"></path>
        </g>
    </g>
</svg>