<?xml version="1.0" encoding="UTF-8"?>
<svg width="47px" height="47px" viewBox="0 0 47 47" version="1.1" xmlns="http://www.w3.org/2000/svg" xmlns:xlink="http://www.w3.org/1999/xlink">
    <!-- Generator: Sketch 56.3 (81716) - https://sketch.com -->
    <title>fruits</title>
    <desc>Created with Sketch.</desc>
    <g id="Page-1" stroke="none" stroke-width="1" fill="none" fill-rule="evenodd">
        <g id="fruits" fill="#FFFFFF" fill-rule="nonzero">
            <path d="M46.2166426,29.7647966 L42.2998557,29.7647966 L42.2998557,25.0650877 C42.301417,21.3679415 40.7616697,17.8374705 38.0510231,15.3229827 C39.1085556,12.4933663 41.9919962,10.0230818 42.0224492,9.99664592 C42.2728346,9.78421175 42.3641395,9.43817442 42.2511531,9.12987925 C42.1381666,8.82158408 41.844872,8.61647169 41.5164983,8.61610642 C39.2516162,8.61610642 37.2826474,9.06071846 35.6315259,9.94024941 C35.9431025,9.41752669 36.2885844,8.91577058 36.6657535,8.43820285 C37.3347313,7.58759125 38.078635,6.79866765 38.8885301,6.08090718 C39.1393954,5.86864882 39.2310973,5.52238893 39.1181698,5.21380324 C39.0052424,4.90521754 38.7116951,4.69991406 38.3830687,4.69968231 C36.2655557,4.69968231 34.397738,5.09396831 32.8073266,5.87059521 C32.5876928,4.23284455 31.8448742,1.33841132 29.3331366,0.0827078371 C29.1125844,-0.027569279 28.8529756,-0.027569279 28.6324234,0.0827078371 C26.1235255,1.33704057 25.379336,4.22648037 25.1589188,5.86530803 C23.5736972,5.09063934 21.7089149,4.69968231 19.5824913,4.69968231 C19.2540458,4.69988362 18.9606008,4.90493748 18.8475127,5.21327157 C18.7344245,5.52160566 18.8257089,5.86774118 19.0761487,6.08022181 C19.886284,6.7980253 20.6303874,7.58705058 21.2995128,8.43781121 C21.6757972,8.91416999 22.0205871,9.41457762 22.3316841,9.93584343 C20.6837939,9.05934772 18.7165876,8.61610642 16.4490617,8.61610642 C16.1206163,8.61630773 15.8271713,8.82136158 15.7140831,9.12969568 C15.6009949,9.43802977 15.6922793,9.78416529 15.9427191,9.99664592 C15.9735638,10.022788 18.8568086,12.4933663 19.9145369,15.3229827 C17.2038903,17.8374705 15.664143,21.3679415 15.6657044,25.0650877 L15.6657044,25.1549696 C14.8013674,25.3191657 13.6575677,25.6934779 13.0467448,26.1519933 C12.9599431,26.2167562 12.8686843,26.2753213 12.7736468,26.3272533 C12.9799635,24.4408097 13.3452039,22.5163768 13.9673855,21.5831908 L13.9673855,21.5831908 C14.1269813,21.3503794 14.1489671,21.0497156 14.0249359,20.7961681 C13.9009046,20.5426206 13.6500403,20.3754058 13.3682692,20.3584638 C13.0864982,20.3415218 12.8174021,20.4774731 12.6638788,20.7143321 L12.6638788,20.7143321 C11.9536674,21.7795995 11.4546688,23.7319369 11.1793187,26.5146541 C10.9163432,26.4397505 10.6694612,26.316935 10.45109,26.1523849 C9.62484383,25.5318275 7.82233847,25.0650877 7.05738998,25.0650877 C5.00930208,25.0650877 3.161362,25.9000693 1.85403643,27.416215 C0.363992752,29.1443371 -0.272485128,31.6005225 0.107736965,34.1549122 L0.597335335,37.4424565 C0.901478794,39.5274932 1.58211617,41.5398885 2.60605953,43.3815179 C3.88498839,45.672626 6.10423988,47 8.45186406,47 C9.02955786,46.9994951 9.6044626,46.9199053 10.1605624,46.763448 C10.1783837,46.7584872 10.195944,46.7528736 10.2132432,46.7466074 L11.5236042,46.2779093 C11.6694466,46.2251389 11.8291716,46.2251389 11.9750139,46.2779093 L13.2852771,46.7466074 C13.3026089,46.7528736 13.3202344,46.7584545 13.3379579,46.763448 C13.8940922,46.9198997 14.4690285,46.9994892 15.0467541,47 C16.7636777,47 18.4116658,46.2890711 19.6737524,45.0111419 C22.329265,46.3081914 25.2440382,46.9871419 28.1994226,46.9970627 C33.0758224,46.9970627 37.7873254,45.1509583 41.4675384,41.7988909 C44.9833443,38.5957455 47,34.4950536 47,30.5480814 C47,30.1154852 46.6492789,29.7647966 46.2166426,29.7647966 Z M25.675543,25.8385814 L28.9930616,22.6173226 L32.3172387,25.8441623 L29.0011889,29.0598403 L25.675543,25.8385814 Z M27.477265,29.7647966 L22.9984191,29.7647966 C22.8841356,29.4449226 22.7490443,29.1328678 22.5940109,28.8306315 L24.5507397,26.9305784 L27.477265,29.7647966 Z M33.4416503,26.9357676 L36.3561314,29.7647966 L30.5240357,29.7647966 L33.4416503,26.9357676 Z M30.1171794,21.5254236 L33.4318583,18.3067104 L36.7587771,21.5377603 L33.4422378,24.7534382 L30.1171794,21.5254236 Z M30.6655296,13.4368329 C32.104767,13.6441074 33.4925638,14.118607 34.7573969,14.8358775 L33.4318583,16.1230102 L30.6655296,13.4368329 Z M32.3074467,17.2149093 L28.992572,20.4339162 L25.6794598,17.2178466 L28.994922,13.9984481 L32.3074467,17.2149093 Z M24.5551461,16.1258496 L23.2195218,14.8293174 C24.4898355,14.1109975 25.8836987,13.6374634 27.3287209,13.4333081 L24.5551461,16.1258496 Z M24.5551461,18.3092561 L27.8684541,21.5256194 L24.5496626,24.748249 L21.2325357,21.5358021 L24.5551461,18.3092561 Z M23.4250552,25.8400501 L21.7146922,27.5011035 C21.6910936,27.4728073 21.6678866,27.4441195 21.6437984,27.416215 C20.5881759,26.1842664 19.1212544,25.3772907 17.5155049,25.1451785 L20.1080262,22.6277011 L23.4250552,25.8400501 Z M22.9005974,37.4424565 L23.3901957,34.1549122 C23.5324519,33.2191879 23.5335741,32.2674233 23.393525,31.3313662 L42.1606139,31.3313662 C41.7089104,33.9178706 40.1794051,36.5089768 37.8722218,38.5521753 C35.1450609,40.9673361 31.7098429,42.2973538 28.1994226,42.2973538 C26.0646475,42.2885886 23.958694,41.8039179 22.0348895,40.8786291 C22.4375966,39.765044 22.7276486,38.6138981 22.9006953,37.4424565 L22.9005974,37.4424565 Z M39.4070147,29.7647966 L40.7331409,28.4806011 L40.7331409,29.7647966 L39.4070147,29.7647966 Z M40.7331409,26.2998383 L37.8811324,29.0616027 L34.5672369,25.8447498 L37.8836784,22.6291698 L40.7331409,25.3963192 L40.7331409,26.2998383 Z M40.5584522,23.0428421 L39.0087754,21.5381519 L39.8864295,20.687113 C40.1926636,21.4465407 40.4179178,22.2361537 40.5584522,23.0428421 L40.5584522,23.0428421 Z M39.1643698,19.2047465 L37.8842659,20.4459592 L34.5565637,17.2149093 L36.0960568,15.7200102 C37.3388606,16.6677859 38.3816845,17.8522389 39.1643698,19.2050402 L39.1643698,19.2047465 Z M39.4562683,10.3324793 C38.5565824,11.3241179 37.4717303,12.7187565 36.7853134,14.2808222 C36.0850163,13.7726617 35.3369066,13.3338782 34.5515698,12.9706805 C34.5613617,12.8486839 34.5762455,12.7266873 34.5954378,12.6046906 C35.8574265,11.3967675 37.4864182,10.6357084 39.4562683,10.332773 L39.4562683,10.3324793 Z M36.3219575,6.41605517 C35.0499809,7.81823292 33.4083576,10.0257254 33.0449777,12.3828252 C32.1231579,12.0869148 31.1716076,11.8931945 30.2074614,11.8051527 C30.1156127,11.5199391 29.9980112,11.1972257 29.8486837,10.8505243 C30.8105486,9.00853211 32.6841437,6.97796412 36.3219575,6.41683846 L36.3219575,6.41605517 Z M28.98278,1.68472112 C30.9240375,2.94923655 31.2619583,5.84915278 31.3206122,6.7662814 C30.3989106,7.44277487 29.6065945,8.27972566 28.981605,9.23705546 C28.6221936,8.68759787 28.2078547,8.17609469 27.7449774,7.71043334 C27.40297,7.36748693 27.0352915,7.0511334 26.6451436,6.76412737 C26.7040913,5.84474681 27.0429913,2.94825745 28.98278,1.68472112 Z M21.6446796,6.41801339 C25.9848713,7.09163833 27.7922726,9.86094182 28.5296078,11.7577639 C27.3034212,11.7982782 26.0888062,12.0089057 24.9205823,12.3836085 C24.8961024,12.2246017 24.8659432,12.0664108 24.8301046,11.9090358 L24.8577179,11.8834811 C24.8434216,11.8680113 24.828342,11.8531289 24.8142416,11.8378548 C24.3052551,9.68930453 22.8177573,7.71141245 21.6446796,6.41801339 Z M18.5089,10.3323814 C20.4810022,10.635023 22.1086231,11.3970613 23.370416,12.6065509 C23.3894124,12.7279601 23.4043941,12.8495651 23.4139902,12.9709742 C22.6286534,13.3341719 21.8805437,13.7729554 21.1802466,14.281116 C20.4937318,12.7185607 19.4086839,11.32402 18.5089,10.3323814 Z M21.8796869,15.7122753 L23.4307345,17.2178466 L20.1067532,20.4454696 L18.8102968,19.189864 C19.5940705,17.839622 20.6372217,16.657742 21.8796869,15.7122753 L21.8796869,15.7122753 Z M18.0862787,20.6696849 L18.9821458,21.5373687 L17.4024077,23.0712362 C17.5436611,22.2485329 17.7729347,21.4433923 18.0862787,20.6696849 L18.0862787,20.6696849 Z M19.5237395,42.618011 C18.5307361,44.3975362 16.8243879,45.430493 15.0325557,45.430493 C14.6112422,45.4302082 14.1918691,45.3734364 13.7856466,45.2616952 L12.5028989,44.8028861 C12.0156226,44.6289959 11.4831914,44.6289959 10.9959151,44.8028861 L9.71218818,45.2619889 C7.49920355,45.8681534 5.19632866,44.8082712 3.97409529,42.6184026 C3.0424596,40.9419231 2.4233678,39.1100668 2.14701209,37.2121708 L1.65741372,33.9247244 C1.34407077,31.8214088 1.84855293,29.8222701 3.04072496,28.4395766 C4.04681079,27.273271 5.5171557,26.611462 7.05738998,26.6316573 C7.55501776,26.6316573 9.00990828,27.0290765 9.51057157,27.4051511 C9.96572772,27.7483447 10.4931888,27.9831854 11.0528064,28.0917981 C11.0142261,28.7152929 10.9926838,29.2632985 10.9806396,29.6829433 C10.303623,29.5309861 9.96227503,29.2199241 9.94376821,29.202496 L9.95238514,29.2110142 C9.75476336,29.0112763 9.46528926,28.9326757 9.19377313,29.0050292 C8.92225699,29.0773827 8.71029573,29.2896055 8.63829559,29.5611922 C8.56629544,29.8327789 8.64528701,30.1221217 8.84530531,30.3194602 C8.95037312,30.4240287 9.91233599,31.3313662 11.7489174,31.3313662 C13.5870655,31.3313662 14.5494201,30.4222663 14.6529212,30.3186769 C14.8508219,30.1207945 14.9281109,29.8323747 14.8556742,29.5620624 C14.7832375,29.29175 14.57208,29.080612 14.3017426,29.0081821 C14.0314052,28.9357521 13.7429587,29.013034 13.545058,29.2109163 C13.5409453,29.2150286 13.2063538,29.5191389 12.5462773,29.6749147 C12.5598881,29.2017127 12.5846618,28.6476366 12.6239276,28.0527318 C13.1174893,27.9311994 13.5812578,27.7107949 13.9871653,27.4048573 C14.4878286,27.0290765 15.9427191,26.6313636 16.4403469,26.6313636 C17.9805519,26.6110413 19.450928,27.2727048 20.4571098,28.4388912 C21.6492819,29.8214868 22.1534703,31.8207234 21.8404211,33.924039 L21.3508227,37.2114854 C21.0744697,39.1094749 20.4553788,40.9414281 19.5237395,42.618011 Z M40.4119643,40.6408043 C37.0212998,43.7294921 32.6841437,45.430493 28.1994226,45.430493 C25.5983174,45.4214308 23.0301477,44.8481626 20.6721414,43.7502492 C20.7480292,43.6301129 20.8217627,43.5075288 20.892069,43.3815179 C21.0848402,43.0362198 21.2653062,42.6846555 21.4334669,42.3268248 C23.5483808,43.3302262 25.858529,43.8550487 28.1994226,43.8639234 C32.0929047,43.8639234 35.8969861,42.3939915 38.9110516,39.7248506 C41.5597788,37.3792063 43.2930549,34.355531 43.7470105,31.3313662 L45.4032239,31.3313662 C45.1541162,34.5969786 43.3662009,37.950123 40.4119643,40.6408043 Z" id="Shape"></path>
            <circle id="Oval" cx="38.5" cy="33.5" r="1"></circle>
            <circle id="Oval" cx="34.5" cy="37.5" r="1"></circle>
            <circle id="Oval" cx="30.5" cy="35.5" r="1"></circle>
            <circle id="Oval" cx="25.5" cy="35.5" r="1"></circle>
            <circle id="Oval" cx="28.5" cy="39.5" r="1"></circle>
        </g>
    </g>
</svg>