<?xml version="1.0" encoding="UTF-8"?>
<svg width="44px" height="47px" viewBox="0 0 44 47" version="1.1" xmlns="http://www.w3.org/2000/svg" xmlns:xlink="http://www.w3.org/1999/xlink">
    <!-- Generator: Sketch 56.3 (81716) - https://sketch.com -->
    <title>box</title>
    <desc>Created with Sketch.</desc>
    <g id="Page-1" stroke="none" stroke-width="1" fill="none" fill-rule="evenodd">
        <g id="box" fill="#FFFFFF" fill-rule="nonzero">
            <path d="M43.6113732,10.3704205 L22.2989649,0.0684345035 C22.1100147,-0.0228115012 21.8899853,-0.0228115012 21.7011268,0.0684345035 L0.388626817,10.3704205 C0.150995133,10.4852583 0,10.7262249 0,10.990416 L0,36.0095381 C0,36.2737292 0.150995133,36.5146958 0.388626817,36.6295336 L21.7010351,46.9315196 C21.7954644,46.9771426 21.897778,47 22,47 C22.102222,47 22.2044439,46.9771426 22.2989649,46.9315196 L43.6113732,36.6295336 C43.8490049,36.5146958 44,36.2737292 44,36.0095381 L44,10.9905078 C44,10.7261331 43.8489132,10.4853501 43.6113732,10.3704205 Z M21.9754441,1.51612903 L41.648855,11.0499307 L35.9459361,13.8136201 C35.9098284,13.7859997 35.8717096,13.7604898 35.8298429,13.7402104 L16.2900763,4.27128456 L21.9754441,1.51612903 Z M14.7667172,5.05376344 L34.4274809,14.5615908 L30.4007131,16.5089606 L10.7480916,7.00498231 L14.7667172,5.05376344 Z M34.9312977,15.8351254 L34.9312977,23.0969018 L31.2366412,24.9318996 L31.2366412,17.6701233 L34.9312977,15.8351254 Z M42.6564885,35.6680205 L22.6886476,45.3154122 L22.6886476,21.8000444 L27.4516095,19.4987929 C27.7940969,19.3332888 27.9377029,18.9213205 27.7723357,18.5784577 C27.6069684,18.2357788 27.1953408,18.0918702 26.8527616,18.2574662 L22,20.6021843 L20.090518,19.6795517 C19.7479388,19.5138638 19.3363112,19.6577724 19.170944,20.0005433 C19.0055768,20.3433142 19.1491827,20.7553744 19.4916701,20.9208785 L21.3113524,21.8000444 L21.3113524,45.3154122 L1.34351145,35.6678368 L1.34351145,12.152469 L16.5488496,19.4990686 C16.645352,19.5457516 16.7473637,19.5678066 16.8477226,19.5678066 C17.1037159,19.5678066 17.3496089,19.4242655 17.4683318,19.178077 C17.633699,18.8353062 17.490093,18.423246 17.1476057,18.2577418 L2.2388451,11.0544075 L9.07986995,7.74910394 L29.7662917,17.7439531 C29.7693218,17.7481803 29.7727191,17.7519481 29.775841,17.7560834 L29.775841,26.0266021 C29.775841,26.2637849 29.8976857,26.4842426 30.0984035,26.6104153 C30.2098726,26.6804398 30.3370428,26.7158197 30.4645803,26.7158197 C30.5666838,26.7158197 30.6690628,26.6931214 30.7639125,26.6472655 L35.9161899,24.1579036 C36.1541865,24.0429421 36.3054135,23.8018079 36.3054135,23.5372402 L36.3054135,15.2211412 L42.6564885,12.1525608 L42.6564885,35.6680205 L42.6564885,35.6680205 Z" id="Shape"></path>
            <path d="M6.65467973,32.6411474 L3.87647837,31.0713562 C3.57255788,30.8994979 3.20756013,31.0487658 3.06089325,31.4043018 C2.91422636,31.7598377 3.04159283,32.1872434 3.34535044,32.358911 L6.1235518,33.9287022 C6.20914141,33.9771237 6.2996172,34 6.38862714,34 C6.61567171,34 6.83375828,33.8511134 6.93905549,33.5957566 C7.0858038,33.2401254 6.95843734,32.8129103 6.65467973,32.6411474 Z" id="Path"></path>
            <path d="M10.6310926,30.7764521 L4.93620962,28.0641698 C4.61164522,27.9096064 4.22166338,28.0438302 4.06499212,28.3640279 C3.90840785,28.6841396 4.04446218,29.0689604 4.36893959,29.2235237 L10.0638226,31.935806 C10.1552504,31.9793172 10.2518977,32 10.3469792,32 C10.5895108,32 10.8224734,31.8659478 10.9349531,31.6360338 C11.0916244,31.3157503 10.9555701,30.9309296 10.6310926,30.7764521 Z" id="Path"></path>
        </g>
    </g>
</svg>