<?xml version="1.0" encoding="UTF-8"?>
<svg width="47px" height="47px" viewBox="0 0 47 47" version="1.1" xmlns="http://www.w3.org/2000/svg" xmlns:xlink="http://www.w3.org/1999/xlink">
    <!-- Generator: Sketch 56.3 (81716) - https://sketch.com -->
    <title>open-box</title>
    <desc>Created with Sketch.</desc>
    <g id="Page-1" stroke="none" stroke-width="1" fill="none" fill-rule="evenodd">
        <g id="open-box" fill="#FFFFFF" fill-rule="nonzero">
            <path d="M8.31286333,40.6321472 L23.1961158,46.9384153 C23.2932669,46.9792151 23.3965378,47 23.4998087,47 C23.6034622,47 23.7067331,46.9792151 23.8038843,46.9384153 L38.6871367,40.6321472 C38.9778252,40.5089779 39.1663903,40.2222244 39.1663903,39.9054483 L39.1663903,33.8905525 L46.5517912,30.37022 C46.7893143,30.2566733 46.9545478,30.0311194 46.9920313,29.7697696 C47.0295149,29.5080349 46.9331286,29.2447605 46.7372964,29.0688594 L39.6873347,22.7625912 L39.6827449,22.7679798 C39.6073953,22.7010065 39.5243961,22.642886 39.4257151,22.6078597 L34.6239996,20.9169762 C36.9590699,19.2214738 39.6395241,17.848521 42.3742912,17.0121244 L41.9191341,15.5033005 C38.6848418,16.492504 35.5193967,18.1937799 32.8523295,20.2926617 L27.5036607,18.4089413 C27.7974091,17.960913 28.0957473,17.515579 28.4147397,17.0844865 C29.3319385,15.84625 30.2242758,14.8909182 31.1288525,14.1869287 C31.32086,15.4305536 32.2013403,16.5571678 33.4161123,16.9528492 C34.9992173,17.4701603 36.843177,16.6460807 37.526295,15.1191663 C37.78256,14.5471989 37.8575269,13.9517523 37.7446939,13.3971054 C37.5450368,12.4148303 36.728814,11.5861318 35.6635935,11.2843671 C35.260072,11.1700506 34.8251866,11.1257866 34.3639099,11.1558091 C36.0479909,9.7447508 38.1355934,8.83214334 40.3134625,8.56463499 L40.12375,7 C37.3970152,7.33409663 34.792293,8.5607859 32.7903669,10.4533592 C32.3822556,10.8390331 31.8689608,11.3759743 31.5124849,12.0545601 C30.0062594,12.8728661 28.5941252,14.2034795 27.1582768,16.1426262 C26.7421332,16.7045861 26.3466439,17.2807875 25.9714262,17.8696907 L23.7591336,17.0898751 C23.5916051,17.0309848 23.4091599,17.0309848 23.2416314,17.0898751 L17.2343236,19.2056927 C16.4938328,18.2218779 15.6864072,17.3581532 14.8128117,16.6256808 C12.6831358,14.839341 10.1419061,13.8312772 7.65804918,13.7847038 C5.22162032,13.7462134 3.05446082,14.6953869 1.86684523,16.3427763 C1.12750194,17.3681607 0.823426422,18.7491965 1.0544473,20.0367006 C1.25563441,21.1583111 1.84007134,22.093243 2.70104487,22.6679047 L3.56737315,21.3546121 C3.0651705,21.0197456 2.72055153,20.4512422 2.59624396,19.7568753 C2.44172006,18.8966147 2.64787945,17.9428225 3.13516516,17.2688554 C4.02176521,16.0383172 5.70737609,15.3212409 7.62821531,15.3620407 C9.75712632,15.4016858 11.9529721,16.2811916 13.8095538,17.8381286 C14.4704877,18.3931603 15.0901132,19.0371047 15.6707253,19.7584149 L7.57428497,22.6105541 C7.47560381,22.6451954 7.39222215,22.7033159 7.31725511,22.7702892 L7.31266529,22.7649006 L0.262703606,29.0711687 C0.0668713372,29.2470699 -0.0295148578,29.5103443 0.0079686331,29.772079 C0.044687164,30.0338138 0.209920641,30.2597525 0.448208759,30.3725294 L7.83322722,33.8905525 L7.83322722,39.9054483 C7.83322722,40.2222244 8.02217481,40.5089779 8.31286333,40.6321472 Z M32.6874785,13.3613094 C32.6978056,13.3108869 32.7104276,13.2604646 32.7253446,13.2100421 C32.9705173,13.0988049 33.21875,13.0045034 33.4700427,12.925598 C34.1619578,12.7081272 34.7578693,12.6654028 35.2405653,12.8031985 C35.7309109,12.9421489 36.1294602,13.3158907 36.2101645,13.7138815 C36.2556802,13.9386655 36.2159018,14.2080983 36.0973314,14.4729123 C35.7442978,15.2611958 34.716561,15.7192317 33.8988082,15.4544177 C33.0810555,15.1865245 32.5145953,14.2088682 32.6874785,13.3613094 Z M9.39988537,34.6372664 L15.3314612,37.4647717 C15.437792,37.5151941 15.552155,37.5405977 15.666518,37.5405977 C15.8562305,37.5405977 16.043648,37.4709301 16.1909048,37.3377533 L22.7164797,31.4271665 L22.7164797,45.0242875 L9.39988537,39.3819788 L9.39988537,34.6372664 Z M37.5997321,39.3819788 L24.2831378,45.0242875 L24.2831378,31.4271665 L30.8090952,37.3377533 C30.9563519,37.4709301 31.1437695,37.5405977 31.3330995,37.5405977 C31.4474625,37.5405977 31.5618255,37.5151941 31.6685387,37.4647717 L37.5997321,34.6372664 L37.5997321,39.3819788 Z M31.4696466,35.8150728 L24.960136,29.9194973 L39.008424,24.2641019 L44.8111025,29.4549181 L31.4696466,35.8150728 Z M16.6357348,21.0867189 C17.1042787,21.8057196 17.5403115,22.5836107 17.9392433,23.4246262 L19.3529075,22.7452704 C18.983427,21.9662246 18.5799054,21.238756 18.1522874,20.5528569 L23.4998087,18.6691365 L25.1552034,19.2514963 C24.4009432,20.5882681 23.7380969,21.9773869 23.1953508,23.4192375 L24.6602679,23.9781182 C25.2083688,22.5220261 25.886897,21.1244395 26.6621939,19.7818941 L31.4554947,21.4696984 C30.6603085,22.1910086 29.9148455,22.9408017 29.2573539,23.726006 L30.4560617,24.740998 C31.2432155,23.7999076 32.1565895,22.9061604 33.1506678,22.0674544 L36.9349734,23.4003772 L23.4998087,28.8086641 L10.0650266,23.401147 L16.6357348,21.0867189 Z M7.99157602,24.2641019 L22.0398639,29.9194973 L15.5303534,35.8150728 L2.18889757,29.4549181 L7.99157602,24.2641019 Z" id="Shape"></path>
            <path d="M14.4826009,3.23328931 C14.3927031,2.82547154 14.2035674,2.51014848 13.9214205,2.29725756 C13.5357548,2.00601375 13.0878223,1.99034317 12.7897194,2.00295607 C11.1812875,2.0725182 9.69427598,3.03912684 9,4.46553368 L10.4387546,5.14013403 C10.8754014,4.24308763 11.8483217,3.60976603 12.8605481,3.56581188 C12.8846765,3.56504751 12.9053024,3.56428304 12.922815,3.56428304 C12.92515,3.56428304 12.9267066,3.56504751 12.9267066,3.56581188 C13.0255554,4.01070408 12.8407005,4.51560319 12.6262689,5.10114859 C12.4764391,5.50820199 12.3227176,5.92901504 12.2437166,6.38957782 C12.2176423,6.54666607 12.1363062,7.02672157 12.4526998,7.44141916 C12.70527,7.77164842 13.1045565,7.9455539 13.6314902,7.92071019 C14.223415,7.90580409 14.7744771,7.78426132 15.3076374,7.66692289 C15.7228799,7.57519254 16.121388,7.48766652 16.5374088,7.4632051 L15.9236906,10.0801956 C15.8711529,10.3041706 15.7832009,10.6791183 15.9435381,11.0804386 C16.2400843,11.8203967 17.1040376,12.0332875 17.8053186,11.8632042 C17.9442517,11.8295698 18.0820171,11.7833224 18.218226,11.7366928 C18.368834,11.6847122 18.5178855,11.6166789 18.6097292,11.6354072 C18.7794065,11.6434337 19.0234149,12.0348165 19.0829576,12.5271027 C19.0996919,12.6654626 19.1117561,12.806498 19.123042,12.9490623 C19.1771364,13.6137251 19.2394033,14.3666784 19.7620561,15 L21,14.0127521 C20.7886817,13.7566716 20.7513215,13.303753 20.7120156,12.822933 C20.6983947,12.6608761 20.6851629,12.4988191 20.6657045,12.3409665 C20.532609,11.2528152 19.8698557,10.1287362 18.6891195,10.0714047 C18.2972271,10.0534409 17.9617642,10.1661927 17.692849,10.2586876 C17.6301929,10.2804735 17.5671478,10.3026416 17.5033241,10.3221343 L18.1664666,7.49798621 C18.2084969,7.31872985 18.2972271,6.94760411 18.107313,6.56615869 C17.9870601,6.32192671 17.6644397,5.90875785 16.8666451,5.88697192 C16.1824874,5.86824366 15.5633209,6.00583919 14.9593319,6.13961266 C14.5997405,6.21949449 14.2545484,6.29555426 13.8895087,6.33148193 C13.952554,6.10674257 14.0377817,5.87435902 14.126512,5.63165578 C14.3845306,4.92189222 14.67952,4.11695835 14.4826009,3.23328931 Z" id="Path"></path>
            <path d="M0,12.0750769 L1.46040512,12.3531055 C1.68167867,11.1564056 2.72202691,10.0880551 4.04857971,9.69565224 C5.2470841,9.341129 6.69769521,9.48492424 8.13307105,10.1016622 C9.58622139,10.7261233 10.8609019,11.7279089 11.81927,13 L13,12.085742 C11.8856521,10.6062327 10.4027568,9.44042497 8.71273514,8.71446137 C6.96394886,7.96349 5.16002567,7.79762901 3.63251294,8.24960933 C1.75386464,8.80566652 0.327557273,10.3072416 0,12.0750769 Z" id="Path"></path>
            <polygon id="Path" points="21 5.62706525 22.2952195 5 24 9.37293475 22.7047805 10"></polygon>
            <path d="M26,10.2647786 L27.4621183,11 C28.1201904,9.59048245 28.9742166,8.29375918 30,7.14646796 L28.8092027,6 C27.6727489,7.26873041 26.7278858,8.70459408 26,10.2647786 Z" id="Path"></path>
            <path d="M24.0150301,6 L25.8503802,5.89814809 C25.7632606,4.51220536 26.1714654,3.11489896 27,1.96422562 L25.4763047,1 C24.4223368,2.46254211 23.9027626,4.23821543 24.0150301,6 Z" id="Path"></path>
            <path d="M44,15.3303627 L44.3355412,17 C45.2391991,16.8474611 46.1356314,16.7446632 47,16.6945078 L46.8843896,15 C45.9468614,15.0543005 44.9763661,15.1658031 44,15.3303627 Z" id="Path"></path>
            <polygon id="Path" points="20 0 21 0 21 1 20 1"></polygon>
            <polygon id="Path" points="34 2 35 2 35 3 34 3"></polygon>
            <polygon id="Path" points="44 10 45 10 45 11 44 11"></polygon>
            <polygon id="Path" points="3 2 4 2 4 3 3 3"></polygon>
            <polygon id="Path" points="16 14 17 14 17 15 16 15"></polygon>
            <polygon id="Path" points="8 19 9 19 9 20 8 20"></polygon>
        </g>
    </g>
</svg>